<svg xmlns="http://www.w3.org/2000/svg" width="96" height="96" viewBox="0 0 96 96" role="img" aria-label="Latte sticker">
  <path d="M28 22h40v32c0 14-10 26-20 26S28 68 28 54V22z" fill="#fff7ed" stroke="#6b3f25" stroke-width="4"/>
  <path d="M68 30h8c6 0 10 4 10 10s-4 10-10 10h-8" fill="none" stroke="#6b3f25" stroke-width="4" stroke-linecap="round"/>
  <path d="M34 22c0 10 6 14 14 14s14-4 14-14" fill="#d9b38c" stroke="#6b3f25" stroke-width="4"/>
  <path d="M38 16c0 6 4 10 10 10" fill="none" stroke="#6b3f25" stroke-width="4" stroke-linecap="round"/>
  <path d="M58 16c0 6-4 10-10 10" fill="none" stroke="#6b3f25" stroke-width="4" stroke-linecap="round"/>
  <circle cx="40" cy="60" r="3" fill="#f2c6d0" opacity="0.8"/>
  <circle cx="56" cy="64" r="3" fill="#f2c6d0" opacity="0.8"/>
</svg>
