<svg xmlns="http://www.w3.org/2000/svg" width="96" height="96" viewBox="0 0 96 96" role="img" aria-label="Strawberry sticker">
  <path d="M48 18c10 0 18 6 18 14 0 2 0 4-1 6 7 6 11 14 11 23 0 20-16 30-28 30S20 81 20 61c0-9 4-17 11-23-1-2-1-4-1-6 0-8 8-14 18-14z" fill="#ffd6e1" stroke="#6b3f25" stroke-width="4"/>
  <path d="M34 22c4 6 10 8 14 8s10-2 14-8" fill="none" stroke="#6b3f25" stroke-width="4" stroke-linecap="round"/>
  <path d="M40 12c0 6 4 10 8 10s8-4 8-10" fill="#cfeecb" stroke="#6b3f25" stroke-width="4" stroke-linecap="round"/>
  <g fill="#ff5a7a" opacity="0.8">
    <circle cx="36" cy="52" r="2"/>
    <circle cx="50" cy="58" r="2"/>
    <circle cx="58" cy="44" r="2"/>
    <circle cx="44" cy="72" r="2"/>
    <circle cx="62" cy="70" r="2"/>
  </g>
</svg>
